<?xml version="1.0" encoding="utf-8"?>
<!-- Generator: Adobe Illustrator 24.0.3, SVG Export Plug-In . SVG Version: 6.00 Build 0)  -->
<!DOCTYPE svg PUBLIC "-//W3C//DTD SVG 1.1//EN" "http://www.w3.org/Graphics/SVG/1.1/DTD/svg11.dtd" [
	<!ENTITY ns_extend "http://ns.adobe.com/Extensibility/1.0/">
	<!ENTITY ns_ai "http://ns.adobe.com/AdobeIllustrator/10.0/">
	<!ENTITY ns_graphs "http://ns.adobe.com/Graphs/1.0/">
	<!ENTITY ns_vars "http://ns.adobe.com/Variables/1.0/">
	<!ENTITY ns_imrep "http://ns.adobe.com/ImageReplacement/1.0/">
	<!ENTITY ns_sfw "http://ns.adobe.com/SaveForWeb/1.0/">
	<!ENTITY ns_custom "http://ns.adobe.com/GenericCustomNamespace/1.0/">
	<!ENTITY ns_adobe_xpath "http://ns.adobe.com/XPath/1.0/">
]>
<svg version="1.1" id="Layer_1" xmlns:x="&ns_extend;" xmlns:i="&ns_ai;" xmlns:graph="&ns_graphs;"
	 xmlns="http://www.w3.org/2000/svg" xmlns:xlink="http://www.w3.org/1999/xlink" x="0px" y="0px" viewBox="0 0 170 175.8"
	 style="enable-background:new 0 0 170 175.8;" xml:space="preserve">
<style type="text/css">
	.st0{fill-rule:evenodd;clip-rule:evenodd;fill:#95C356;}
	.st1{fill:#95C356;}
</style>
<metadata>
	<sfw  xmlns="&ns_sfw;">
		<slices></slices>
		<sliceSourceBounds  bottomLeftOrigin="true" height="175.8" width="170" x="94" y="44.5"></sliceSourceBounds>
	</sfw>
</metadata>
<g>
	<g>
		<path class="st0" d="M83,9.8c-45.8,0-83,37.3-83,83s37.3,83,83,83s83-37.3,83-83c0-19.8-6.7-37.5-18.1-52l-7.8,9.3
			c9.9,12.2,13.8,25.8,13.8,42.7c0,39.2-31.7,70.9-70.9,70.9S12.1,132,12.1,92.8S43.8,21.9,83,21.9c12.4,0,21.7,1.8,31.9,7.4
			l7.4-9.8C110.4,13,97.5,9.8,83,9.8L83,9.8z"/>
		<path class="st1" d="M52.3,81.9c3.3,0,5.9,2.7,7.6,8.2c3.4,10.3,5.9,15.5,7.3,15.5c1.1,0,2.3-0.9,3.5-2.6
			c24.1-38.6,46.4-69.9,67-93.7C143,3.1,151.5,0,163.1,0c2.7,0,4.6,0.3,5.5,0.8S170,2,170,2.7c0,1.2-1.4,3.6-4.2,7.1
			C132.7,49.6,101.9,91.7,73.6,136c-2,3.1-6,4.6-12.1,4.6c-6.2,0-9.8-0.3-10.9-0.8c-2.9-1.3-6.4-7.9-10.3-19.7
			c-4.5-13.1-6.7-21.4-6.7-24.7c0-3.6,3-7.1,9-10.4C46.2,82.9,49.5,81.9,52.3,81.9"/>
	</g>
</g>
</svg>
